PathFileType	4	(X/Y/Z)	29_2_7_p0_0-216_filt_butterworth.trc
DataRate	CameraRate	NumFrames	NumMarkers	Units	OrigDataRate	OrigDataStartFrame	OrigNumFrames
60.0	60.0	6	27	m	60.0	81	216
Frame#	Time	RHip			RKnee			RAnkle			RBigToe			RSmallToe			RHeel			LHip			LKnee			LAnkle			LBigToe			LSmallToe			LHeel			Neck			Head			Nose			RShoulder			RElbow			RWrist			RThumb			RIndex			RPinky			LShoulder			LElbow			LWrist			LThumb			LIndex			LPinky			
		X1	Y1	Z1	X2	Y2	Z2	X3	Y3	Z3	X4	Y4	Z4	X5	Y5	Z5	X6	Y6	Z6	X7	Y7	Z7	X8	Y8	Z8	X9	Y9	Z9	X10	Y10	Z10	X11	Y11	Z11	X12	Y12	Z12	X13	Y13	Z13	X14	Y14	Z14	X15	Y15	Z15	X16	Y16	Z16	X17	Y17	Z17	X18	Y18	Z18	X19	Y19	Z19	X20	Y20	Z20	X21	Y21	Z21	X22	Y22	Z22	X23	Y23	Z23	X24	Y24	Z24	X25	Y25	Z25	X26	Y26	Z26	X27	Y27	Z27	
81	1.35	0.35320403215073204	0.5512748329816367	0.9345071305785811	0.31256976196823644	0.661014197826552	1.335263353853704	0.28173864379066715	0.7867055529734196	1.7334856886848453	0.28542875045627586	0.6301324751465016	1.7719390381729863	0.32512434255629663	0.651620024055118	1.7660572578479379	0.2602764094011737	0.8548092030219396	1.7883029114009623	0.14362738405775188	0.5701205698436212	0.9345012642209958	0.11652259774079093	0.6917365301350187	1.32963596103582	0.0985847675635252	0.7922675460085938	1.726617879805732	0.11962230777542673	0.6170658995557964	1.756721035197375	0.061981575985120226	0.6636997382958753	1.7587637706300352	0.11015561853943871	0.8209830993233298	1.7604922508177998	0.29958436722576487	0.4434857456112036	0.3827087890545843	0.3173837026949759	0.3779954966292616	0.15992223100639175	0.3021723141281093	0.31515789589133203	0.2775347233023436	0.4187261403722309	0.44802958490154166	0.47837538940385405	0.4271904841266018	0.29278064574005513	0.6604580875733133	0.35810746802349985	0.152129520804209	0.5176751017707211	0.31372752869514003	0.11165141538276235	0.4423980335241211	0.31773824124859035	0.08581669783970201	0.4430914488445814	0.3186644259925633	0.08405399617208748	0.49291889283104096	0.13666013959266712	0.48973207135761404	0.45394881227013834	0.04371019974467254	0.5469027742160457	0.7084502611695422	0.057308282710761105	0.44328495607806134	0.9360504540869359	0.11086532154850476	0.4519842535616642	1.026442116159147	0.07606476644658491	0.42507244614898815	1.0408938108570274	0.04302719971834753	0.4278350972535082	1.0382463008434308
82	1.3666666666666667	0.3532951485975826	0.5511883761845541	0.9348391640451129	0.3126233155961404	0.6611336648717299	1.3351905059807834	0.28271205733585286	0.7807124489121776	1.7311098146859274	0.28682468664247524	0.6317923245287362	1.7719363331048479	0.3254085900438834	0.6526484031925914	1.766365605681797	0.2602573408958317	0.8554892874533655	1.7871587088602894	0.1431938710789735	0.5740709172812938	0.9359971097969816	0.11652177614803971	0.6917684348765575	1.3305971038166975	0.09816610137395074	0.7922748999349973	1.7265405713016533	0.1200969725739075	0.6205220329517565	1.7568411739410614	0.06204761735688065	0.663920766443411	1.75910658861748	0.10951687935573376	0.8214093222642256	1.7593050713757714	0.2995910738648193	0.44371507430817014	0.38260326616398577	0.3172912645369411	0.37808146567024226	0.15999330804097714	0.29978379271150046	0.315067645846488	0.277531198414777	0.41879597567761034	0.4480078342507591	0.47847897578295673	0.42525621585043444	0.2896065037022806	0.6603062716915515	0.3581135173682655	0.1523364724148403	0.5152413480039857	0.30955885595544474	0.11777941612964465	0.43982934836819176	0.3167743336771248	0.08763665741381484	0.43884407885955323	0.3179620804143253	0.08557216566779358	0.4861438095184203	0.13670342988601966	0.4899451592298395	0.45429103117065306	0.043667649211316065	0.5466328666510947	0.7088047376583821	0.05979558950937135	0.4522608632679873	0.937558030066076	0.12212331311431848	0.4404066459324411	1.024149725171196	0.08829867259077506	0.4181886738792766	1.0396460708750492	0.044477673368430254	0.4337084791892326	1.0400442982838307
83	1.3833333333333333	0.35340774225273824	0.5509203299002335	0.9348502828561208	0.3126395538246042	0.6611276739958483	1.3352147893178905	0.2835460940263548	0.776093336055319	1.729283962826584	0.28776129079072915	0.6307880750782471	1.7720676293571476	0.3262750184652963	0.653829484201359	1.766796349253778	0.26023647757794477	0.8559773185970984	1.7863055096257368	0.14302575092637773	0.5755740809381316	0.9371227945658662	0.11607201946864518	0.6915492838733128	1.3308080389857722	0.09755102924800818	0.7918982059430772	1.7263454084020073	0.12035803348467275	0.6221021861172651	1.756903338769054	0.062131278780578336	0.6640464076876725	1.7594713291977198	0.1089933172223562	0.821579316697909	1.7583100015857578	0.29957104306861454	0.44373902748004657	0.3826752242769905	0.31729723336623517	0.37803313223951385	0.16003101721687518	0.29875775146592304	0.31451910524826604	0.2775351752704152	0.418850880585163	0.447995518962347	0.4784528431522366	0.4235417785466924	0.2881529537626593	0.6601452437821415	0.3580667360999353	0.1525850442550103	0.5143438908551556	0.30434017299086835	0.12235636428168381	0.4388198917753141	0.31387433658242475	0.08772105525119421	0.43630633431279925	0.31575171850433537	0.08746778416777777	0.4826023995290971	0.13672861544397338	0.49002482272798503	0.45432626621507166	0.04426956854497896	0.5451102372909147	0.7086932653828202	0.06259108711837968	0.45911014139219397	0.9395033823623187	0.1288057927085348	0.43179482222286625	1.0231608031106305	0.09900107893424485	0.4084964928769522	1.0379063055173874	0.04676983999765899	0.4382201354218297	1.0414508319780653
84	1.4	0.35333994561772586	0.5510979574426822	0.9351893008326202	0.31264028842302616	0.6610852024634938	1.335255712563619	0.2839588450058615	0.7741855884449942	1.7285558977885465	0.2875077786239101	0.6285645337987669	1.7721523900343823	0.32782396201916464	0.6546985454075572	1.7672410058851176	0.2602145181025938	0.8560307926523418	1.7859080482337137	0.14302182770950403	0.5755870137998373	0.9375817939291073	0.11530243227540565	0.6913768187468726	1.330724898778163	0.09701015650084499	0.7911749514987139	1.726090653463834	0.12042891139427031	0.6223743164619456	1.7569249057280927	0.062192974517655236	0.6639748237433982	1.7596657519135324	0.10877243151183284	0.8216257226203869	1.7578756497137156	0.29953232619848574	0.44356497851953786	0.3827632378846193	0.31736385407410855	0.3779169743010854	0.1600146806109477	0.29942665147491665	0.313439719335708	0.2775467945289004	0.4188675332951145	0.4480173104576092	0.47840243028460433	0.42255522377403354	0.28784127192174974	0.6600298766878788	0.35804389576966705	0.15288657798747007	0.5149585993894191	0.2994223364938606	0.12402493021990442	0.43982779732231253	0.30997169837979593	0.08614351383825007	0.4364944849187019	0.3127753662332218	0.08750522911642389	0.48408764005235994	0.1367593098629122	0.49021804539444547	0.4543130701964049	0.04578601337004769	0.5416452678504924	0.708351161338251	0.06568599114255465	0.46203966814710906	0.9408668541600159	0.1325183304943553	0.4267648140429566	1.0236007448748268	0.10711425881618283	0.4026566181569911	1.0372537422483044	0.049618157435281224	0.44025888794530044	1.0421535099959716
85	1.4166666666666667	0.352702398337514	0.5528391814715081	0.9364757259256984	0.3126328337248235	0.6610455320190635	1.3352729297528134	0.2840162609926799	0.7740821144104357	1.7285595968062317	0.2867520521125119	0.6262531022409933	1.7721795008707852	0.32960568087713693	0.6554363967176482	1.7677194961638596	0.26020794502976957	0.8558502998677875	1.7858273787218422	0.14304565549104636	0.5752540553338463	0.9378062363804894	0.11459940597000609	0.6912680032956142	1.331025050636609	0.09673602714296299	0.7905095203233211	1.7259048246037376	0.12043150755638636	0.6222543348918826	1.756908776500215	0.062225377406900075	0.6638029267343373	1.7595958645185785	0.10875728108617481	0.8216072060793767	1.757831527395022	0.299481780754284	0.44322322003231107	0.3828160437170339	0.3174241538697321	0.3778113555797742	0.15996422260433382	0.30061433293304324	0.3119513115393303	0.27755777523317565	0.41885038833129284	0.4480680217101395	0.47805067919250216	0.42231632406051856	0.28785109328814695	0.6599258289221175	0.35775558811496383	0.15206565644145215	0.5177841278421593	0.2963694007469397	0.12019440467754847	0.4445466874516123	0.3066814607217443	0.08291228761558941	0.4414221524611853	0.3101553988174964	0.08396503147905104	0.49003948301345884	0.13681633260656872	0.490589127256302	0.45428998274575605	0.04777971804668971	0.537112927049564	0.7079776450649427	0.06864076916514301	0.4628371012860028	0.9414082176051726	0.13519614826459442	0.4237509723444201	1.0246623448005632	0.11274677733374835	0.4029300770610379	1.0380556344100067	0.05249354106665327	0.4407038786784758	1.04270544380043
86	1.4333333333333331	0.35130153735656766	0.5568494330547047	0.9388559329842519	0.31261869760389893	0.6610032790441032	1.3352626461498063	0.28395414796332835	0.7744843442557553	1.7287517776315793	0.2862572614657979	0.6236308304848707	1.7722322299782045	0.3308056473984997	0.6561067126072936	1.7681402838881242	0.2602141326817697	0.8556751014013864	1.7858574649384582	0.14305512145492666	0.5750345262466352	0.9382748079404141	0.11427744224439962	0.6910395458234388	1.3320333310291115	0.0966874623829847	0.7901930534673149	1.7258435241695191	0.12043581811412284	0.6221660641530564	1.7568607456033882	0.062241575893073234	0.6636565855094898	1.75928525167985	0.10879575858144258	0.8215098985391175	1.757875611869824	0.2994361038555733	0.44284725979765466	0.38283851716527995	0.31747390205986276	0.3776958554939998	0.15989903105135395	0.3011629589085558	0.31066263980077474	0.2775486036003696	0.4188099486030687	0.4481234810046098	0.477063674873596	0.4223263324579154	0.2881350572700324	0.6599246956092222	0.3566854825742081	0.14822810377018614	0.5234697938908593	0.29588808235272845	0.1105342006275136	0.45430785323059775	0.30463881504110024	0.07875809486626274	0.4524382454906086	0.3086010168091419	0.07825611528767878	0.49864509622609565	0.13684786687565137	0.49072811979528486	0.4541430408567097	0.04932124724818723	0.5336079448911758	0.7077388417883592	0.07101821222897522	0.46426584835154283	0.9416506653148751	0.13704392341924232	0.4219860017739954	1.0253136788038493	0.1160080112764893	0.40605198761623346	1.039184617490393	0.054619401929000416	0.44067437431358036	1.0434522468815515
